<?xml version="1.0" encoding="UTF-8" standalone="no"?>
<!DOCTYPE svg PUBLIC "-//W3C//DTD SVG 1.1//EN"
 "http://www.w3.org/Graphics/SVG/1.1/DTD/svg11.dtd">
<!-- Generated by graphviz version 2.43.0 (0)
 -->
<!-- Title: structs Pages: 1 -->
<svg width="293pt" height="124pt"
 viewBox="0.00 0.00 293.00 124.00" xmlns="http://www.w3.org/2000/svg" xmlns:xlink="http://www.w3.org/1999/xlink">
<g id="graph0" class="graph" transform="scale(1 1) rotate(0) translate(4 120)">
<title>structs</title>
<polygon fill="white" stroke="transparent" points="-4,4 -4,-120 289,-120 289,4 -4,4"/>
<!-- sat -->
<g id="node1" class="node">
<title>sat</title>
<path fill="none" stroke="black" d="M12,-0.5C12,-0.5 42,-0.5 42,-0.5 48,-0.5 54,-6.5 54,-12.5 54,-12.5 54,-57.5 54,-57.5 54,-63.5 48,-69.5 42,-69.5 42,-69.5 12,-69.5 12,-69.5 6,-69.5 0,-63.5 0,-57.5 0,-57.5 0,-12.5 0,-12.5 0,-6.5 6,-0.5 12,-0.5"/>
<text text-anchor="middle" x="27" y="-54.3" font-family="Times,serif" font-size="14.00">SAT</text>
<polyline fill="none" stroke="black" points="0,-46.5 54,-46.5 "/>
<text text-anchor="middle" x="27" y="-31.3" font-family="Times,serif" font-size="14.00">adj</text>
<polyline fill="none" stroke="black" points="0,-23.5 54,-23.5 "/>
<text text-anchor="middle" x="27" y="-8.3" font-family="Times,serif" font-size="14.00">*</text>
</g>
<!-- ig -->
<g id="node2" class="node">
<title>ig</title>
<path fill="none" stroke="black" d="M103,-23.5C103,-23.5 133,-23.5 133,-23.5 139,-23.5 145,-29.5 145,-35.5 145,-35.5 145,-80.5 145,-80.5 145,-86.5 139,-92.5 133,-92.5 133,-92.5 103,-92.5 103,-92.5 97,-92.5 91,-86.5 91,-80.5 91,-80.5 91,-35.5 91,-35.5 91,-29.5 97,-23.5 103,-23.5"/>
<text text-anchor="middle" x="118" y="-77.3" font-family="Times,serif" font-size="14.00">IG</text>
<polyline fill="none" stroke="black" points="91,-69.5 145,-69.5 "/>
<text text-anchor="middle" x="118" y="-54.3" font-family="Times,serif" font-size="14.00">tr</text>
<polyline fill="none" stroke="black" points="91,-46.5 145,-46.5 "/>
<text text-anchor="middle" x="118" y="-31.3" font-family="Times,serif" font-size="14.00">adj</text>
</g>
<!-- ig&#45;&gt;sat -->
<g id="edge1" class="edge">
<title>ig:a_ig&#45;&gt;sat:s_sat</title>
<path fill="none" stroke="black" d="M82.89,-35C75,-35 70.09,-35 62.22,-35"/>
<ellipse fill="black" stroke="black" cx="87" cy="-35" rx="4" ry="4"/>
<ellipse fill="black" stroke="black" cx="58" cy="-35" rx="4" ry="4"/>
</g>
<!-- ant -->
<g id="node3" class="node">
<title>ant</title>
<path fill="none" stroke="black" d="M243,-46.5C243,-46.5 273,-46.5 273,-46.5 279,-46.5 285,-52.5 285,-58.5 285,-58.5 285,-103.5 285,-103.5 285,-109.5 279,-115.5 273,-115.5 273,-115.5 243,-115.5 243,-115.5 237,-115.5 231,-109.5 231,-103.5 231,-103.5 231,-58.5 231,-58.5 231,-52.5 237,-46.5 243,-46.5"/>
<text text-anchor="middle" x="258" y="-100.3" font-family="Times,serif" font-size="14.00">ANT</text>
<polyline fill="none" stroke="black" points="231,-92.5 285,-92.5 "/>
<text text-anchor="middle" x="258" y="-77.3" font-family="Times,serif" font-size="14.00">best</text>
<polyline fill="none" stroke="black" points="231,-69.5 285,-69.5 "/>
<text text-anchor="middle" x="258" y="-54.3" font-family="Times,serif" font-size="14.00">verb</text>
</g>
<!-- ant&#45;&gt;ig -->
<g id="edge2" class="edge">
<title>ant:a_ant&#45;&gt;ig:s_ig</title>
<path fill="none" stroke="black" d="M222.94,-58C193.81,-58 182.3,-58 153.24,-58"/>
<ellipse fill="black" stroke="black" cx="227" cy="-58" rx="4" ry="4"/>
<ellipse fill="black" stroke="black" cx="149" cy="-58" rx="4" ry="4"/>
<text text-anchor="middle" x="188" y="-61.8" font-family="Times,serif" font-size="14.00">subspc</text>
</g>
</g>
</svg>
